<?xml version="1.0" standalone="no"?>
<!DOCTYPE svg PUBLIC "-//W3C//DTD SVG 20010904//EN"
 "http://www.w3.org/TR/2001/REC-SVG-20010904/DTD/svg10.dtd">
<svg version="1.0" xmlns="http://www.w3.org/2000/svg"
 width="512.000000pt" height="512.000000pt" viewBox="0 0 512.000000 512.000000"
 preserveAspectRatio="xMidYMid meet">

<g transform="translate(0.000000,512.000000) scale(0.100000,-0.100000)"
fill="#000000" stroke="none">
<path d="M1497 4806 c-12 -12 -723 -1298 -781 -1413 -14 -29 -14 -33 2 -52 17
-20 30 -21 707 -36 930 -20 952 -20 965 4 5 11 7 26 4 35 -3 8 -93 90 -200
182 -107 92 -194 171 -194 175 0 11 180 67 285 87 242 48 486 33 723 -44 504
-165 875 -598 969 -1129 21 -121 20 -341 -2 -470 -79 -458 -367 -846 -780
-1049 -126 -62 -267 -108 -405 -132 -119 -20 -405 -14 -520 11 -288 63 -516
188 -721 394 -308 309 -453 701 -418 1130 9 100 8 126 -3 136 -13 12 -539 156
-569 155 -28 0 -41 -27 -54 -117 -34 -230 -27 -463 20 -700 186 -923 968
-1605 1905 -1662 533 -32 1028 127 1444 464 365 295 626 729 721 1198 188 931
-283 1876 -1140 2283 -183 87 -363 143 -580 181 -158 27 -501 24 -665 -6 -151
-28 -322 -78 -449 -132 -51 -22 -94 -39 -96 -37 -1 2 -24 120 -51 263 -35 187
-53 264 -66 277 -22 22 -32 22 -51 4z m51 -410 c23 -120 47 -224 53 -232 15
-18 43 -18 81 2 17 9 80 36 141 60 436 175 929 189 1374 39 1002 -339 1562
-1405 1274 -2426 -291 -1030 -1355 -1646 -2392 -1384 -273 69 -533 196 -754
369 -82 64 -233 213 -305 301 -321 393 -486 924 -441 1420 7 72 15 133 19 137
4 4 104 -19 222 -51 l215 -58 1 -169 c1 -183 17 -303 58 -446 178 -612 720
-1052 1355 -1097 1085 -79 1899 971 1556 2005 -75 225 -192 413 -369 589 -270
269 -571 409 -958 445 -244 23 -561 -35 -770 -141 -67 -34 -57 -52 109 -196
81 -70 161 -141 178 -156 l30 -28 -325 6 c-748 15 -1061 23 -1066 27 -3 3 145
278 328 611 183 334 336 603 339 599 3 -4 25 -105 47 -226z"/>
</g>
</svg>
